<svg width="18" height="18" viewBox="0 0 18 18" fill="none" xmlns="http://www.w3.org/2000/svg">
<path d="M10.7678 7.23217C11.7441 8.20848 11.7441 9.79139 10.7678 10.7677C9.79151 11.744 8.2086 11.744 7.23229 10.7677C6.25598 9.79139 6.25598 8.20848 7.23229 7.23217C8.20861 6.25586 9.79151 6.25586 10.7678 7.23217" stroke="#8B8B94" stroke-width="1.5" stroke-linecap="round" stroke-linejoin="round"/>
<path fill-rule="evenodd" clip-rule="evenodd" d="M11.849 1.11999L12.432 1.31399C12.966 1.49199 13.327 1.99199 13.327 2.55499V3.39199C13.327 4.10399 13.895 4.68499 14.607 4.69999L15.445 4.71799C15.93 4.72799 16.37 5.00699 16.587 5.44099L16.862 5.99099C17.114 6.49499 17.015 7.10299 16.617 7.50099L16.025 8.09299C15.522 8.59599 15.513 9.40899 16.005 9.92299L16.585 10.529C16.921 10.88 17.035 11.387 16.881 11.848L16.687 12.431C16.509 12.965 16.009 13.326 15.446 13.326H14.609C13.897 13.326 13.316 13.894 13.301 14.606L13.283 15.444C13.273 15.929 12.994 16.369 12.56 16.586L12.01 16.861C11.506 17.113 10.898 17.014 10.5 16.616L9.90803 16.024C9.40503 15.521 8.59203 15.512 8.07803 16.004L7.47203 16.584C7.12103 16.92 6.61403 17.034 6.15303 16.88L5.57003 16.686C5.03603 16.508 4.67503 16.008 4.67503 15.445V14.608C4.67503 13.896 4.10703 13.315 3.39503 13.3L2.55703 13.282C2.07203 13.272 1.63203 12.993 1.41503 12.559L1.14003 12.009C0.88803 11.505 0.98703 10.897 1.38503 10.499L1.97703 9.90699C2.48003 9.40399 2.48903 8.59099 1.99703 8.07699L1.41703 7.47099C1.08003 7.11899 0.96603 6.61099 1.12003 6.15099L1.31403 5.56799C1.49203 5.03399 1.99203 4.67299 2.55503 4.67299H3.39203C4.10403 4.67299 4.68503 4.10499 4.70003 3.39299L4.71803 2.55499C4.73003 2.06999 5.00803 1.62999 5.44203 1.41299L5.99203 1.13799C6.49603 0.885986 7.10403 0.984986 7.50203 1.38299L8.09403 1.97499C8.59703 2.47799 9.41003 2.48699 9.92403 1.99499L10.53 1.41499C10.881 1.07999 11.389 0.965986 11.849 1.11999V1.11999Z" stroke="#8B8B94" stroke-width="1.5" stroke-linecap="round" stroke-linejoin="round"/>
</svg>
