<svg width="18" height="18" viewBox="0 0 18 18" fill="none" xmlns="http://www.w3.org/2000/svg">
<path fill-rule="evenodd" clip-rule="evenodd" d="M4.9091 11.2458L3.37415 4H15.9998C16.6508 4 17.1277 4.61098 16.9698 5.24296L15.6218 10.6348C15.4168 11.4538 14.7208 12.0558 13.8808 12.1398L7.06504 12.8217C6.04907 12.9227 5.1201 12.2438 4.9091 11.2458Z" stroke="#E16364" stroke-width="1.5" stroke-linecap="round" stroke-linejoin="round"/>
<path d="M3.37393 3.99991L2.72395 1H1" stroke="#E16364" stroke-width="1.5" stroke-linecap="round" stroke-linejoin="round"/>
<path d="M14.6087 16.2666C14.4067 16.2666 14.2427 16.4306 14.2447 16.6326C14.2447 16.8346 14.4087 16.9986 14.6107 16.9986C14.8126 16.9986 14.9766 16.8346 14.9766 16.6326C14.9756 16.4306 14.8116 16.2666 14.6087 16.2666" stroke="#E16364" stroke-width="1.5" stroke-linecap="round" stroke-linejoin="round"/>
<path d="M6.19729 16.2665C5.99529 16.2665 5.8313 16.4305 5.8333 16.6325C5.8313 16.8355 5.99629 16.9995 6.19829 16.9995C6.40028 16.9995 6.56428 16.8355 6.56428 16.6335C6.56428 16.4305 6.40028 16.2665 6.19729 16.2665" stroke="#E16364" stroke-width="1.5" stroke-linecap="round" stroke-linejoin="round"/>
</svg>
