<svg width="24" height="24" viewBox="0 0 24 24" fill="none" xmlns="http://www.w3.org/2000/svg">
<path fill-rule="evenodd" clip-rule="evenodd" d="M16.5853 17.5023V12C16.5854 11.5135 16.3922 11.0469 16.0482 10.7029C15.7042 10.359 15.2376 10.1658 14.7512 10.1659H5.58068C5.09421 10.1658 4.62762 10.359 4.28363 10.7029C3.93964 11.0469 3.74645 11.5135 3.74658 12V17.5023C3.74645 17.9888 3.93964 18.4554 4.28363 18.7993C4.62762 19.1433 5.09421 19.3365 5.58068 19.3364H14.7512C15.7641 19.3364 16.5853 18.5152 16.5853 17.5023Z" stroke="#A2A2A7" stroke-width="1.3" stroke-linecap="round" stroke-linejoin="round"/>
<path d="M3.74658 13.9065H16.5853" stroke="#A2A2A7" stroke-width="1.3" stroke-linecap="round" stroke-linejoin="round"/>
<path d="M6.68115 10.1659L7.79078 6.02084C7.91668 5.55107 8.22434 5.15071 8.64586 4.90812C9.06739 4.66553 9.56812 4.60065 10.0376 4.7278L18.8962 7.10296C19.366 7.22886 19.7664 7.53652 20.009 7.95804C20.2516 8.37957 20.3164 8.8803 20.1893 9.34973L18.7679 14.6594C18.5149 15.615 17.5478 16.1961 16.5853 15.9708" stroke="#A2A2A7" stroke-width="1.3" stroke-linecap="round" stroke-linejoin="round"/>
</svg>
