<svg width="16" height="18" viewBox="0 0 16 18" fill="none" xmlns="http://www.w3.org/2000/svg">
<path d="M5.89905 14.8153V15.1499C5.89905 16.3095 6.83955 17.25 8.00005 17.25V17.25C9.16055 17.25 10.101 16.3095 10.101 15.149V14.8144" stroke="#A2A2A7" stroke-width="1.3" stroke-linecap="round" stroke-linejoin="round"/>
<path d="M9.68026 3.27175V2.43025C9.68026 1.50258 8.9286 0.75 8.00001 0.75V0.75C7.07143 0.75 6.31976 1.50258 6.31976 2.43025V3.27175" stroke="#A2A2A7" stroke-width="1.3" stroke-linecap="round" stroke-linejoin="round"/>
<path fill-rule="evenodd" clip-rule="evenodd" d="M3.0161 7.339V7.339C3.0161 5.04458 4.87602 3.18558 7.16952 3.18558H8.83144C11.1259 3.18558 12.9849 5.0455 12.9849 7.339V7.339V9.90292C12.9849 10.3888 13.1783 10.8553 13.522 11.1991L14.1096 11.7867C14.4534 12.1304 14.6468 12.597 14.6468 13.0828V13.0828C14.6468 14.0398 13.8713 14.8153 12.9143 14.8153H3.08669C2.12969 14.8153 1.35419 14.0398 1.35419 13.0828V13.0828C1.35419 12.597 1.5476 12.1304 1.89135 11.7867L2.47894 11.1991C2.82269 10.8553 3.0161 10.3888 3.0161 9.90292V7.339Z" stroke="#A2A2A7" stroke-width="1.3" stroke-linecap="round" stroke-linejoin="round"/>
</svg>
