<svg width="22" height="22" viewBox="0 0 22 22" fill="none" xmlns="http://www.w3.org/2000/svg">
<path fill-rule="evenodd" clip-rule="evenodd" d="M8.42233 15.5833L10.175 17.9208C10.5875 18.4708 11.4125 18.4708 11.825 17.9208L13.5777 15.5833H16.5C18.0189 15.5833 19.25 14.3522 19.25 12.8333V7.33333C19.25 5.81442 18.0189 4.58333 16.5 4.58333H5.5C3.98108 4.58333 2.75 5.81442 2.75 7.33333V12.8333C2.75 14.3522 3.98108 15.5833 5.5 15.5833H8.42233Z" stroke="#A2A2A7" stroke-width="1.3" stroke-linecap="round" stroke-linejoin="round"/>
<path d="M11.1623 10.3795C11.2521 10.4693 11.2521 10.6141 11.1623 10.704C11.0724 10.7938 10.9276 10.7938 10.8378 10.704C10.7479 10.6141 10.7479 10.4693 10.8378 10.3795C10.9276 10.2896 11.0724 10.2906 11.1623 10.3795" stroke="#A2A2A7" stroke-width="1.3" stroke-linecap="round" stroke-linejoin="round"/>
<path d="M14.8289 10.3795C14.9187 10.4693 14.9187 10.6141 14.8289 10.704C14.7391 10.7938 14.5942 10.7938 14.5044 10.704C14.4146 10.6141 14.4146 10.4693 14.5044 10.3795C14.5942 10.2896 14.7391 10.2906 14.8289 10.3795" stroke="#A2A2A7" stroke-width="1.3" stroke-linecap="round" stroke-linejoin="round"/>
<path d="M7.49558 10.3795C7.58542 10.4693 7.58542 10.6141 7.49558 10.704C7.40575 10.7938 7.26092 10.7938 7.17108 10.704C7.08125 10.6141 7.08125 10.4693 7.17108 10.3795C7.26092 10.2896 7.40575 10.2906 7.49558 10.3795" stroke="#A2A2A7" stroke-width="1.3" stroke-linecap="round" stroke-linejoin="round"/>
</svg>
