<svg width="16" height="16" viewBox="0 0 16 16" fill="none" xmlns="http://www.w3.org/2000/svg">
<path d="M9.62049 6.37953C10.5154 7.27448 10.5154 8.72548 9.62049 9.62043C8.72554 10.5154 7.27454 10.5154 6.37959 9.62043C5.48464 8.72548 5.48464 7.27448 6.37959 6.37953C7.27454 5.48457 8.72554 5.48457 9.62049 6.37953" stroke="#A2A2A7" stroke-width="1.3" stroke-linecap="round" stroke-linejoin="round"/>
<path fill-rule="evenodd" clip-rule="evenodd" d="M10.6116 0.776671L11.146 0.954505C11.6355 1.11767 11.9664 1.576 11.9664 2.09209V2.85934C11.9664 3.512 12.4871 4.04459 13.1398 4.05834L13.9079 4.07484C14.3525 4.084 14.7559 4.33975 14.9548 4.73759L15.2069 5.24175C15.4379 5.70375 15.3471 6.26109 14.9823 6.62592L14.4396 7.16859C13.9785 7.62967 13.9703 8.37492 14.4213 8.84609L14.9529 9.40159C15.2609 9.72334 15.3654 10.1881 15.2243 10.6107L15.0464 11.1451C14.8833 11.6346 14.4249 11.9655 13.9089 11.9655H13.1416C12.4889 11.9655 11.9564 12.4862 11.9426 13.1388L11.9261 13.907C11.9169 14.3516 11.6612 14.7549 11.2634 14.9538L10.7592 15.2059C10.2972 15.4369 9.73985 15.3462 9.37502 14.9813L8.83235 14.4387C8.37127 13.9776 7.62602 13.9693 7.15485 14.4203L6.59935 14.952C6.2776 15.26 5.81285 15.3645 5.39027 15.2233L4.85585 15.0455C4.36635 14.8823 4.03543 14.424 4.03543 13.9079V13.1407C4.03543 12.488 3.51477 11.9554 2.8621 11.9417L2.09393 11.9252C1.64935 11.916 1.24602 11.6603 1.0471 11.2624L0.795018 10.7583C0.564017 10.2963 0.654767 9.73892 1.0196 9.37409L1.56227 8.83142C2.02335 8.37034 2.0316 7.62509 1.5806 7.15392L1.04893 6.59842C0.740017 6.27575 0.635517 5.81009 0.776684 5.38842L0.954517 4.854C1.11768 4.3645 1.57602 4.03359 2.0921 4.03359H2.85935C3.51202 4.03359 4.0446 3.51292 4.05835 2.86025L4.07485 2.09209C4.08585 1.6475 4.34068 1.24417 4.73852 1.04525L5.24268 0.793171C5.70468 0.562171 6.26202 0.652921 6.62685 1.01775L7.16952 1.56042C7.6306 2.0215 8.37585 2.02975 8.84702 1.57875L9.40252 1.04709C9.72427 0.740005 10.1899 0.635505 10.6116 0.776671V0.776671Z" stroke="#A2A2A7" stroke-width="1.3" stroke-linecap="round" stroke-linejoin="round"/>
</svg>
